<svg xmlns="http://www.w3.org/2000/svg" xmlns:xlink="http://www.w3.org/1999/xlink" width="562.08" height="135.99" viewBox="0 0 562.08 135.99">
  <defs>
    <linearGradient id="a" data-name="Degradado sin nombre 36" x1="520.03" y1="205.61" x2="61.85" y2="-58.92" gradientUnits="userSpaceOnUse">
      <stop offset="0" stop-color="#ff2e79"/>
      <stop offset="1" stop-color="#c22998"/>
    </linearGradient>
  </defs>
  <title>Ever</title>
  <path d="M61.84,111.63c-16.6,0-27.57-8.57-31.05-27.57,36.94-1.87,77.63-8.57,77.63-44.7C108.42,15.26,91.29,0,63.18,0,26,0,0,29.45,0,72.28c0,41,21.68,63.18,58.36,63.71,22.76,0,41.76-7.76,53.54-26.5L94.23,94.77C85.66,106.55,76.83,111.63,61.84,111.63ZM60.22,24.09c12.31,0,18.47,5.62,18.47,16.6,0,19-28.11,22.75-51.13,23.29C29.16,38.82,40.94,24.09,60.22,24.09ZM280.28,3.48H310l-48.46,129.3H231.29L182.83,3.48h31.32l28.11,81.11,5.09,20.62,5.09-20.62ZM380.92,111.63c-16.6,0-27.57-8.57-31.05-27.57,36.94-1.87,77.63-8.57,77.63-44.7C427.5,15.26,410.37,0,382.26,0c-37.21,0-63.18,29.45-63.18,72.28,0,41,21.68,63.18,58.36,63.71,22.76,0,41.76-7.76,53.54-26.5L413.32,94.77C404.75,106.55,395.91,111.63,380.92,111.63Zm.81-87.54c12.31,0,18.47,5.62,18.47,16.6,0,19-28.11,22.75-51.13,23.29C350.67,38.82,362.45,24.09,381.73,24.09ZM562.08,132.78,536.53,81.24c13.83-7.15,23.06-18.81,23.06-36.53,0-24.75-17.91-41.23-46-41.23h-58v129.3h29.13V90.66a146.63,146.63,0,0,0,26.1-1.55l20.52,43.67ZM484.69,68.14V27h30.22c10.66,0,17.38,6.83,17.38,18.13C532.29,65.92,506.78,68.14,484.69,68.14ZM179.22,78.9H125V57.09h54.22Z" fill="url(#a)"/>
</svg>
